<mxfile host="app.diagrams.net" modified="2025-05-02T07:57:32.890Z" agent="Mozilla/5.0 (X11; Linux x86_64) AppleWebKit/537.36 (KHTML, like Gecko) Chrome/133.0.0.0 Safari/537.36" etag="VjtB_a-8jJaEqHyKDP9Y" version="24.6.4" type="device">
  <diagram name="Pagina-1" id="NBGAwAPGhdPfyd8Vw9wn">
    <mxGraphModel dx="1380" dy="759" grid="1" gridSize="10" guides="1" tooltips="1" connect="1" arrows="1" fold="1" page="1" pageScale="1" pageWidth="827" pageHeight="1169" math="0" shadow="0">
      <root>
        <mxCell id="0" />
        <mxCell id="1" parent="0" />
      </root>
    </mxGraphModel>
  </diagram>
</mxfile>
